<svg xmlns="http://www.w3.org/2000/svg" width="900" height="600" viewBox="0 0 900 600"><rect width="900" height="600" fill="#f5f9f9"/><g font-family="Arial,sans-serif"><text x="38" y="56" font-size="26" fill="#153c48">Pullwinding Equipment</text><path d="M105 295L805 295" fill="none" stroke="#17877f" stroke-width="5"/><circle cx="355" cy="280" r="98" fill="#c1e1dd" stroke="#1c6570" stroke-width="4"/><circle cx="565" cy="280" r="98" fill="#c1e1dd" stroke="#1c6570" stroke-width="4"/><path d="M140 275h635v45H140Z" fill="#d4e6e1" stroke="#1c6570" stroke-width="4"/><path d="M280 275L320 320" fill="none" stroke="#17877f" stroke-width="5"/><path d="M325 275L365 320" fill="none" stroke="#17877f" stroke-width="5"/><path d="M370 275L410 320" fill="none" stroke="#17877f" stroke-width="5"/><path d="M415 275L455 320" fill="none" stroke="#17877f" stroke-width="5"/><path d="M460 275L500 320" fill="none" stroke="#17877f" stroke-width="5"/><path d="M505 275L545 320" fill="none" stroke="#17877f" stroke-width="5"/><path d="M550 275L590 320" fill="none" stroke="#17877f" stroke-width="5"/><path d="M595 275L635 320" fill="none" stroke="#17877f" stroke-width="5"/><path d="M640 275L680 320" fill="none" stroke="#17877f" stroke-width="5"/><text x="250" y="145" font-size="19" fill="#153c48">Winding around longitudinal reinforcement</text><rect x="38" y="474" width="150" height="54" rx="10" fill="#d8ebe7" stroke="#1c6570" stroke-width="3"/><text x="52" y="508.0" font-size="15" fill="#153c48">Axial fibers</text><rect x="209" y="474" width="150" height="54" rx="10" fill="#d8ebe7" stroke="#1c6570" stroke-width="3"/><text x="223" y="508.0" font-size="15" fill="#153c48">Winding heads</text><rect x="380" y="474" width="150" height="54" rx="10" fill="#d8ebe7" stroke="#1c6570" stroke-width="3"/><text x="394" y="508.0" font-size="15" fill="#153c48">Mandrel / die</text><rect x="551" y="474" width="150" height="54" rx="10" fill="#d8ebe7" stroke="#1c6570" stroke-width="3"/><text x="565" y="508.0" font-size="15" fill="#153c48">Cure</text><rect x="722" y="474" width="150" height="54" rx="10" fill="#d8ebe7" stroke="#1c6570" stroke-width="3"/><text x="736" y="508.0" font-size="15" fill="#153c48">Pull / cut</text><text x="38" y="567" font-size="15" fill="#153c48">F1 COMPOSITE / SPECIFICATION DIAGRAM</text></g></svg>