0
SECTION
2
HEADER
9
$ACADVER
1
AC1009
0
ENDSEC
0
SECTION
2
TABLES
0
TABLE
2
LTYPE
70
1
0
LTYPE
2
CONTINUOUS
70
0
3
Solid line
72
65
73
0
40
0
0
ENDTAB
0
TABLE
2
LAYER
70
7
0
LAYER
2
0
70
0
62
7
6
CONTINUOUS
0
LAYER
2
M_CLIP
70
0
62
1
6
CONTINUOUS
0
LAYER
2
C_CLIP
70
0
62
2
6
CONTINUOUS
0
LAYER
2
J_CLIP
70
0
62
3
6
CONTINUOUS
0
LAYER
2
T_CLIP
70
0
62
4
6
CONTINUOUS
0
LAYER
2
SUPPORT
70
0
62
8
6
CONTINUOUS
0
LAYER
2
NOTES
70
0
62
7
6
CONTINUOUS
0
ENDTAB
0
ENDSEC
0
SECTION
2
ENTITIES
0
TEXT
8
NOTES
10
10
20
247
30
0
40
5
1
F1 PULTRUDED GRATING CLIPS - M / J / T - 316SS
50
0
0
TEXT
8
NOTES
10
10
20
239
30
0
40
3.2
1
NOT FOR FABRICATION - NOT TO SCALE - NO MANUFACTURING DIMENSIONS SHOWN
50
0
0
TEXT
8
NOTES
10
10
20
232
30
0
40
4
1
APPROVED PROJECT DRAWING CONTROLS
50
0
0
TEXT
8
NOTES
10
10
20
225
30
0
40
2.8
1
VERIFY GRATING FAMILY, CLIP SERIES, SUPPORT, LOADS, SPACING, TORQUE, AND FASTENER ASSEMBLY
50
0
0
TEXT
8
NOTES
10
10
20
219
30
0
40
2.8
1
CLIPS: 316 STAINLESS STEEL; VERIFY COMPLETE FASTENER ASSEMBLY ALLOY
50
0
0
TEXT
8
NOTES
10
10
20
213
30
0
40
2.8
1
PULTRUDED GRATING FAMILY ONLY - USE APPROVED F1 SKU AND DRAWING
50
0
0
LINE
8
NOTES
10
10
20
117
30
0
11
175
21
117
31
0
0
LINE
8
NOTES
10
175
20
117
30
0
11
175
21
213
31
0
0
LINE
8
NOTES
10
175
20
213
30
0
11
10
21
213
31
0
0
LINE
8
NOTES
10
10
20
213
30
0
11
10
21
117
31
0
0
TEXT
8
NOTES
10
15
20
205
30
0
40
4
1
M CLIP INSTALLATION SCHEMATIC
50
0
0
TEXT
8
NOTES
10
15
20
199
30
0
40
2.6
1
NOT FOR FABRICATION - NOT TO SCALE
50
0
0
TEXT
8
M_CLIP
10
15
20
192
30
0
40
3.1
1
SKU: F1-GRID-CLIP-M-316
50
0
0
TEXT
8
M_CLIP
10
15
20
186
30
0
40
2.8
1
M CLIP HOLD-DOWN - 316 STAINLESS STEEL
50
0
0
TEXT
8
NOTES
10
15
20
124
30
0
40
2.4
1
MOLDED OR PULTRUDED - SERIES SELECTION REQUIRED
50
0
0
LINE
8
SUPPORT
10
40
20
138
30
0
11
145
21
138
31
0
0
LINE
8
SUPPORT
10
145
20
138
30
0
11
145
21
147
31
0
0
LINE
8
SUPPORT
10
145
20
147
30
0
11
40
21
147
31
0
0
LINE
8
SUPPORT
10
40
20
147
30
0
11
40
21
138
31
0
0
LINE
8
SUPPORT
10
40
20
142.5
30
0
11
145
21
142.5
31
0
0
LINE
8
SUPPORT
10
57
20
147
30
0
11
71
21
147
31
0
0
LINE
8
SUPPORT
10
71
20
147
30
0
11
71
21
175
31
0
0
LINE
8
SUPPORT
10
71
20
175
30
0
11
57
21
175
31
0
0
LINE
8
SUPPORT
10
57
20
175
30
0
11
57
21
147
31
0
0
LINE
8
SUPPORT
10
97
20
147
30
0
11
111
21
147
31
0
0
LINE
8
SUPPORT
10
111
20
147
30
0
11
111
21
175
31
0
0
LINE
8
SUPPORT
10
111
20
175
30
0
11
97
21
175
31
0
0
LINE
8
SUPPORT
10
97
20
175
30
0
11
97
21
147
31
0
0
LINE
8
M_CLIP
10
53
20
175
30
0
11
57
21
180
31
0
0
LINE
8
M_CLIP
10
57
20
180
30
0
11
71
21
180
31
0
0
LINE
8
M_CLIP
10
71
20
180
30
0
11
76
21
185
31
0
0
LINE
8
M_CLIP
10
76
20
185
30
0
11
92
21
185
31
0
0
LINE
8
M_CLIP
10
92
20
185
30
0
11
97
21
180
31
0
0
LINE
8
M_CLIP
10
97
20
180
30
0
11
111
21
180
31
0
0
LINE
8
M_CLIP
10
111
20
180
30
0
11
115
21
175
31
0
0
LINE
8
M_CLIP
10
84
20
185
30
0
11
84
21
139
31
0
0
CIRCLE
8
M_CLIP
10
84
20
185
30
0
40
2.5
0
TEXT
8
NOTES
10
118
20
166
30
0
40
2.3
1
CLIP OVER TWO ADJACENT BARS
50
0
0
LINE
8
NOTES
10
185
20
117
30
0
11
350
21
117
31
0
0
LINE
8
NOTES
10
350
20
117
30
0
11
350
21
213
31
0
0
LINE
8
NOTES
10
350
20
213
30
0
11
185
21
213
31
0
0
LINE
8
NOTES
10
185
20
213
30
0
11
185
21
117
31
0
0
TEXT
8
NOTES
10
190
20
205
30
0
40
4
1
J CLIP INSTALLATION SCHEMATIC
50
0
0
TEXT
8
NOTES
10
190
20
199
30
0
40
2.6
1
NOT FOR FABRICATION - NOT TO SCALE
50
0
0
TEXT
8
J_CLIP
10
190
20
192
30
0
40
3.1
1
SKU: F1-GRID-CLIP-J-316
50
0
0
TEXT
8
J_CLIP
10
190
20
186
30
0
40
2.8
1
J CLIP HOOK HOLD-DOWN - 316 STAINLESS STEEL
50
0
0
TEXT
8
NOTES
10
190
20
124
30
0
40
2.4
1
MOLDED OR PULTRUDED - SERIES SELECTION REQUIRED
50
0
0
LINE
8
SUPPORT
10
215
20
138
30
0
11
320
21
138
31
0
0
LINE
8
SUPPORT
10
320
20
138
30
0
11
320
21
147
31
0
0
LINE
8
SUPPORT
10
320
20
147
30
0
11
215
21
147
31
0
0
LINE
8
SUPPORT
10
215
20
147
30
0
11
215
21
138
31
0
0
LINE
8
SUPPORT
10
215
20
142.5
30
0
11
320
21
142.5
31
0
0
LINE
8
SUPPORT
10
233
20
147
30
0
11
247
21
147
31
0
0
LINE
8
SUPPORT
10
247
20
147
30
0
11
247
21
175
31
0
0
LINE
8
SUPPORT
10
247
20
175
30
0
11
233
21
175
31
0
0
LINE
8
SUPPORT
10
233
20
175
30
0
11
233
21
147
31
0
0
LINE
8
SUPPORT
10
269
20
147
30
0
11
283
21
147
31
0
0
LINE
8
SUPPORT
10
283
20
147
30
0
11
283
21
175
31
0
0
LINE
8
SUPPORT
10
283
20
175
30
0
11
269
21
175
31
0
0
LINE
8
SUPPORT
10
269
20
175
30
0
11
269
21
147
31
0
0
LINE
8
J_CLIP
10
259
20
179
30
0
11
259
21
137
31
0
0
LINE
8
J_CLIP
10
259
20
137
30
0
11
259
21
132
31
0
0
LINE
8
J_CLIP
10
259
20
132
30
0
11
314
21
132
31
0
0
LINE
8
J_CLIP
10
314
20
132
30
0
11
321
21
139
31
0
0
LINE
8
J_CLIP
10
321
20
139
30
0
11
321
21
147
31
0
0
LINE
8
J_CLIP
10
247
20
175
30
0
11
253
21
181
31
0
0
LINE
8
J_CLIP
10
253
20
181
30
0
11
265
21
181
31
0
0
LINE
8
J_CLIP
10
265
20
181
30
0
11
271
21
175
31
0
0
CIRCLE
8
J_CLIP
10
259
20
181
30
0
40
2.5
0
TEXT
8
NOTES
10
290
20
159
30
0
40
2.3
1
HOOKS TO SUPPORT
50
0
0
LINE
8
NOTES
10
10
20
11
30
0
11
175
21
11
31
0
0
LINE
8
NOTES
10
175
20
11
30
0
11
175
21
107
31
0
0
LINE
8
NOTES
10
175
20
107
30
0
11
10
21
107
31
0
0
LINE
8
NOTES
10
10
20
107
30
0
11
10
21
11
31
0
0
TEXT
8
NOTES
10
15
20
99
30
0
40
4
1
T CLIP INSTALLATION SCHEMATIC
50
0
0
TEXT
8
NOTES
10
15
20
93
30
0
40
2.6
1
NOT FOR FABRICATION - NOT TO SCALE
50
0
0
TEXT
8
T_CLIP
10
15
20
86
30
0
40
3.1
1
SKU: F1-GRID-CLIP-T-316
50
0
0
TEXT
8
T_CLIP
10
15
20
80
30
0
40
2.8
1
T CLIP F1 SERIES-SPECIFIC HOLD-DOWN - 316 STAINLESS STEEL
50
0
0
TEXT
8
NOTES
10
15
20
18
30
0
40
2.4
1
PULTRUDED GRATING ONLY - F1 SERIES-SPECIFIC DEFINITION
50
0
0
LINE
8
SUPPORT
10
40
20
32
30
0
11
145
21
32
31
0
0
LINE
8
SUPPORT
10
145
20
32
30
0
11
145
21
41
31
0
0
LINE
8
SUPPORT
10
145
20
41
30
0
11
40
21
41
31
0
0
LINE
8
SUPPORT
10
40
20
41
30
0
11
40
21
32
31
0
0
LINE
8
SUPPORT
10
40
20
36.5
30
0
11
145
21
36.5
31
0
0
LINE
8
SUPPORT
10
52
20
41
30
0
11
70
21
41
31
0
0
LINE
8
SUPPORT
10
70
20
41
30
0
11
70
21
45
31
0
0
LINE
8
SUPPORT
10
70
20
45
30
0
11
52
21
45
31
0
0
LINE
8
SUPPORT
10
52
20
45
30
0
11
52
21
41
31
0
0
LINE
8
SUPPORT
10
59
20
45
30
0
11
63
21
45
31
0
0
LINE
8
SUPPORT
10
63
20
45
30
0
11
63
21
65
31
0
0
LINE
8
SUPPORT
10
63
20
65
30
0
11
59
21
65
31
0
0
LINE
8
SUPPORT
10
59
20
65
30
0
11
59
21
45
31
0
0
LINE
8
SUPPORT
10
52
20
65
30
0
11
70
21
65
31
0
0
LINE
8
SUPPORT
10
70
20
65
30
0
11
70
21
69
31
0
0
LINE
8
SUPPORT
10
70
20
69
30
0
11
52
21
69
31
0
0
LINE
8
SUPPORT
10
52
20
69
30
0
11
52
21
65
31
0
0
LINE
8
SUPPORT
10
106
20
41
30
0
11
124
21
41
31
0
0
LINE
8
SUPPORT
10
124
20
41
30
0
11
124
21
45
31
0
0
LINE
8
SUPPORT
10
124
20
45
30
0
11
106
21
45
31
0
0
LINE
8
SUPPORT
10
106
20
45
30
0
11
106
21
41
31
0
0
LINE
8
SUPPORT
10
113
20
45
30
0
11
117
21
45
31
0
0
LINE
8
SUPPORT
10
117
20
45
30
0
11
117
21
65
31
0
0
LINE
8
SUPPORT
10
117
20
65
30
0
11
113
21
65
31
0
0
LINE
8
SUPPORT
10
113
20
65
30
0
11
113
21
45
31
0
0
LINE
8
SUPPORT
10
106
20
65
30
0
11
124
21
65
31
0
0
LINE
8
SUPPORT
10
124
20
65
30
0
11
124
21
69
31
0
0
LINE
8
SUPPORT
10
124
20
69
30
0
11
106
21
69
31
0
0
LINE
8
SUPPORT
10
106
20
69
30
0
11
106
21
65
31
0
0
LINE
8
T_CLIP
10
80
20
72
30
0
11
100
21
72
31
0
0
LINE
8
T_CLIP
10
90
20
72
30
0
11
90
21
32
31
0
0
LINE
8
T_CLIP
10
81
20
68
30
0
11
99
21
68
31
0
0
CIRCLE
8
T_CLIP
10
90
20
72
30
0
40
2.5
0
LINE
8
T_CLIP
10
82
20
42
30
0
11
82
21
37
31
0
0
LINE
8
T_CLIP
10
82
20
37
30
0
11
98
21
37
31
0
0
LINE
8
T_CLIP
10
98
20
37
30
0
11
98
21
42
31
0
0
TEXT
8
NOTES
10
15
20
24
30
0
40
2.3
1
LETTER DESIGNATIONS VARY BY PRODUCT SERIES
50
0
0
ENDSEC
0
EOF
