<svg xmlns="http://www.w3.org/2000/svg" viewBox="0 0 1200 800" role="img" aria-labelledby="title desc">
<title id="title">Industrial roller interfaces</title><desc id="desc">Shell stiffness is only one part of a complete rotating assembly. Web load • span • speed • torque • vibration. Runout • bearings • surface • balance • end joints. Schematic, not to scale.</desc>
<defs><pattern id="grid" width="40" height="40" patternUnits="userSpaceOnUse"><path d="M40 0H0V40" fill="none" stroke="#e8eef2" stroke-width="1"/></pattern><marker id="arrow" markerWidth="8" markerHeight="8" refX="6" refY="3" orient="auto"><path d="M0 0L6 3L0 6" fill="none" stroke="#00a199" stroke-width="1.5"/></marker></defs>
<style>text{font-family:Arial,sans-serif;fill:#233a50}.label{font-size:25px;font-weight:600}.small{font-size:19px;letter-spacing:.7px}.leader{fill:none;stroke:#657c8e;stroke-width:2.5}.steel{fill:none;stroke:#81909e;stroke-width:10}.arrow{fill:none;stroke:#00a199;stroke-width:5;marker-end:url(#arrow)}</style>
<rect width="1200" height="800" fill="#f8fafb"/><rect y="118" width="1200" height="560" fill="url(#grid)"/>
<rect x="0" width="12" height="118" fill="#00a199"/><text x="42" y="53" font-size="31" font-weight="700">Industrial roller interfaces</text><text x="42" y="89" font-size="21">Shell stiffness is only one part of a complete rotating assembly</text>

<path d="M226 340H958V460H226Z" fill="#113c54"/><ellipse cx="226" cy="400" rx="48" ry="60" fill="#32596e"/><ellipse cx="958" cy="400" rx="48" ry="60" fill="#00a199"/><ellipse cx="958" cy="400" rx="28" ry="37" fill="#163f53"/>
<path d="M229 352H947M229 442H947" stroke="#457785" stroke-width="4"/><path d="M580 340L505 225H749L823 340" fill="#edcf77" opacity=".85"/><path d="M581 460L505 580H749L824 460" fill="#edcf77" opacity=".85"/>
<path d="M140 400H226M958 400H1055" stroke="#a7b4bf" stroke-width="24"/><rect x="147" y="365" width="38" height="70" rx="8" fill="#667b8e"/><rect x="1010" y="365" width="38" height="70" rx="8" fill="#667b8e"/>
<path d="M346 350V258H254" class="leader"/><text x="149" y="230" class="label">Composite shell</text>
<path d="M986 448V529H960" class="leader"/><text x="858" y="578" class="label">Journal interface</text>
<text x="538" y="207" class="label">Web path</text><path d="M142 481V582H258" class="leader"/><text x="150" y="618" class="label">Bearing support</text>
<rect y="687" width="1200" height="113" fill="#031e35"/><path d="M599 708V778" stroke="#426174"/>
<text x="38" y="729" style="fill:#79d8ce;font-size:22px;font-weight:700">Specify the rotating duty</text><text x="38" y="769" style="fill:#fff;font-size:19px">Web load • span • speed • torque • vibration</text>
<text x="625" y="729" style="fill:#79d8ce;font-size:22px;font-weight:700">Define assembly acceptance</text><text x="625" y="769" style="fill:#fff;font-size:19px">Runout • bearings • surface • balance • end joints</text>
</svg>
