<svg xmlns="http://www.w3.org/2000/svg" viewBox="0 0 900 600" width="900" height="600"><rect width="900" height="600" fill="#f5f9f9"/><g font-family="Arial,sans-serif"><text x="55" y="65" font-size="26" fill="#153c48">FRP Rock Bolts</text><path d="M155 355L710 215" stroke="#578e91" stroke-width="30"/><path d="M170 361.22l-12-40" stroke="#d1e6e0" stroke-width="4"/><path d="M192 355.676l-12-40" stroke="#d1e6e0" stroke-width="4"/><path d="M214 350.132l-12-40" stroke="#d1e6e0" stroke-width="4"/><path d="M236 344.588l-12-40" stroke="#d1e6e0" stroke-width="4"/><path d="M258 339.044l-12-40" stroke="#d1e6e0" stroke-width="4"/><path d="M280 333.5l-12-40" stroke="#d1e6e0" stroke-width="4"/><path d="M302 327.956l-12-40" stroke="#d1e6e0" stroke-width="4"/><path d="M324 322.412l-12-40" stroke="#d1e6e0" stroke-width="4"/><path d="M346 316.868l-12-40" stroke="#d1e6e0" stroke-width="4"/><path d="M368 311.324l-12-40" stroke="#d1e6e0" stroke-width="4"/><path d="M390 305.78l-12-40" stroke="#d1e6e0" stroke-width="4"/><path d="M412 300.236l-12-40" stroke="#d1e6e0" stroke-width="4"/><path d="M434 294.692l-12-40" stroke="#d1e6e0" stroke-width="4"/><path d="M456 289.148l-12-40" stroke="#d1e6e0" stroke-width="4"/><path d="M478 283.604l-12-40" stroke="#d1e6e0" stroke-width="4"/><path d="M500 278.06l-12-40" stroke="#d1e6e0" stroke-width="4"/><path d="M522 272.516l-12-40" stroke="#d1e6e0" stroke-width="4"/><path d="M544 266.972l-12-40" stroke="#d1e6e0" stroke-width="4"/><path d="M566 261.428l-12-40" stroke="#d1e6e0" stroke-width="4"/><path d="M588 255.88400000000001l-12-40" stroke="#d1e6e0" stroke-width="4"/><path d="M610 250.34l-12-40" stroke="#d1e6e0" stroke-width="4"/><path d="M632 244.796l-12-40" stroke="#d1e6e0" stroke-width="4"/><path d="M654 239.252l-12-40" stroke="#d1e6e0" stroke-width="4"/><path d="M676 233.708l-12-40" stroke="#d1e6e0" stroke-width="4"/><path d="M698 228.164l-12-40" stroke="#d1e6e0" stroke-width="4"/><path d="M660 178l56-18 38 130-57 17Z" fill="#a6cecc" stroke="#1c6570" stroke-width="4"/><path d="M727 193l40-10 18 58-40 11Z" fill="#246c78"/><text x="145" y="430" font-size="22" fill="#153c48">Bar / bond interface</text><text x="575" y="120" font-size="22" fill="#153c48">Plate + nut assembly</text><text x="55" y="550" font-size="16" fill="#153c48">F1 COMPOSITE  /  CONCEPT ONLY · NOT TO SCALE</text></g></svg>